<?xml version="1.0" standalone="no"?>
<!DOCTYPE svg PUBLIC "-//W3C//DTD SVG 20010904//EN"
 "http://www.w3.org/TR/2001/REC-SVG-20010904/DTD/svg10.dtd">
<svg version="1.0" xmlns="http://www.w3.org/2000/svg"
 width="638.000000pt" height="132.000000pt" viewBox="0 0 638.000000 132.000000"
 preserveAspectRatio="xMidYMid meet">
<metadata>
Created by potrace 1.15, written by Peter Selinger 2001-2017
</metadata>
<g transform="translate(0.000000,132.000000) scale(0.100000,-0.100000)"
fill="#000000" stroke="none">
<path d="M1774 1040 c-54 -21 -70 -91 -31 -135 69 -80 189 -1 151 100 -8 19
-55 45 -81 44 -10 0 -28 -4 -39 -9z"/>
<path d="M20 1031 c0 -5 13 -11 30 -14 18 -4 37 -18 47 -35 10 -16 68 -167
128 -336 l110 -306 36 0 36 0 88 238 c48 130 91 240 94 244 3 4 45 -102 92
-235 l86 -242 38 0 37 0 119 314 c65 173 126 322 135 333 10 10 35 21 56 24
21 4 38 10 38 15 0 13 -227 11 -235 -1 -4 -6 8 -10 27 -10 53 0 72 -19 65 -66
-8 -50 -117 -344 -127 -344 -8 0 -101 256 -123 338 -10 39 -10 45 8 58 10 8
29 14 42 14 13 0 23 5 23 10 0 6 -75 10 -205 10 -130 0 -205 -4 -205 -10 0 -5
8 -10 18 -10 32 0 52 -23 80 -94 l28 -69 -46 -118 c-25 -65 -48 -121 -52 -124
-8 -8 -128 319 -131 358 -2 28 2 33 31 42 17 5 32 13 32 17 0 4 -90 8 -200 8
-110 0 -200 -4 -200 -9z"/>
<path d="M3620 885 c0 -85 2 -155 5 -155 3 0 21 33 41 73 46 90 107 181 136
201 12 9 35 16 50 16 l28 0 0 -313 c0 -356 2 -347 -78 -347 -23 0 -42 -4 -42
-10 0 -6 85 -10 235 -10 150 0 235 4 235 10 0 6 -17 10 -38 10 -21 0 -47 6
-58 14 -18 14 -19 31 -22 330 l-3 316 32 0 c46 0 111 -71 176 -196 l53 -99 0
158 0 157 -375 0 -375 0 0 -155z"/>
<path d="M5480 1030 c0 -5 10 -10 23 -10 46 0 47 -6 47 -330 0 -318 -2 -330
-42 -330 -10 0 -18 -4 -18 -10 0 -6 57 -10 150 -10 93 0 150 4 150 10 0 6 -8
10 -18 10 -41 0 -42 11 -42 352 l0 328 -125 0 c-77 0 -125 -4 -125 -10z"/>
<path d="M2181 957 c-28 -46 -122 -133 -165 -154 -44 -20 -47 -43 -7 -43 l29
0 4 -167 c2 -104 8 -176 16 -190 15 -27 67 -59 111 -68 53 -11 138 3 164 28
13 12 16 16 7 10 -22 -17 -62 -16 -85 1 -24 17 -33 88 -34 259 l-1 127 59 0
c55 0 71 8 71 36 0 2 -29 4 -65 4 l-65 0 0 95 c0 52 -4 95 -9 95 -5 0 -19 -15
-30 -33z"/>
<path d="M1474 796 c-17 -7 -34 -22 -38 -32 -6 -15 -5 -17 5 -6 14 13 49 17
49 5 -1 -5 -7 -19 -15 -33 -21 -37 -18 -65 11 -99 56 -67 164 -22 164 68 0 83
-93 135 -176 97z"/>
<path d="M2575 801 c-75 -20 -136 -69 -165 -133 -25 -56 -26 -149 -1 -203 57
-127 250 -174 372 -92 34 23 79 81 79 101 0 6 -8 -3 -19 -19 -32 -53 -78 -85
-122 -85 -84 0 -129 53 -145 168 l-7 52 148 0 148 0 -5 45 c-7 60 -48 119
-100 146 -45 23 -135 33 -183 20z m92 -19 c20 -12 33 -60 33 -118 l0 -54 -66
0 -67 0 7 68 c4 37 14 77 22 90 14 22 48 29 71 14z"/>
<path d="M3194 796 c-17 -7 -34 -22 -38 -32 -6 -15 -5 -17 5 -6 14 13 49 17
49 5 -1 -5 -7 -19 -15 -33 -21 -37 -18 -65 11 -99 56 -67 164 -22 164 68 0 83
-93 135 -176 97z"/>
<path d="M4562 791 c-132 -46 -199 -193 -143 -316 36 -80 142 -145 236 -145
92 0 201 66 236 144 24 53 24 139 0 191 -25 56 -90 111 -152 129 -68 21 -111
20 -177 -3z m136 -25 c39 -50 37 -352 -3 -396 -23 -26 -57 -25 -80 0 -38 43
-38 357 0 400 24 27 59 25 83 -4z"/>
<path d="M5112 791 c-132 -46 -199 -193 -143 -316 36 -80 142 -145 236 -145
92 0 201 66 236 144 24 53 24 139 0 191 -25 56 -90 111 -152 129 -68 21 -111
20 -177 -3z m136 -25 c39 -50 37 -352 -3 -396 -23 -26 -57 -25 -80 0 -38 42
-38 358 0 400 25 27 60 25 83 -4z"/>
<path d="M5957 795 c-97 -34 -133 -130 -81 -210 9 -14 49 -44 88 -67 39 -22
83 -52 99 -66 73 -68 -19 -137 -109 -81 -36 22 -78 84 -89 132 -14 54 -25 25
-25 -63 0 -85 11 -115 25 -70 8 26 12 26 87 -10 34 -16 76 -30 91 -30 50 0
114 21 147 49 27 22 33 36 37 77 7 68 -14 105 -82 149 -30 19 -80 51 -110 70
-46 30 -55 40 -55 65 0 70 116 66 166 -7 10 -15 29 -48 41 -73 l21 -45 1 100
c0 70 -3 93 -9 77 -14 -34 -34 -36 -87 -8 -53 29 -99 32 -156 11z"/>
<path d="M1170 790 c0 -5 8 -10 18 -10 39 0 42 -17 42 -217 l0 -194 -30 -6
c-70 -14 -20 -23 125 -23 97 0 155 4 155 10 0 6 -10 10 -23 10 -13 0 -28 5
-35 12 -16 16 -17 321 -1 350 8 15 8 19 0 14 -7 -5 -11 5 -11 28 l0 36 -120 0
c-73 0 -120 -4 -120 -10z"/>
<path d="M1660 791 c0 -5 14 -11 30 -15 l30 -6 -2 -202 -3 -203 -27 -3 c-16
-2 -28 -8 -28 -13 0 -5 66 -9 155 -9 97 0 155 4 155 10 0 6 -11 10 -25 10 -14
0 -29 8 -35 19 -6 12 -10 101 -10 220 l0 201 -120 0 c-66 0 -120 -4 -120 -9z"/>
<path d="M2890 790 c0 -5 8 -10 18 -10 39 0 42 -17 42 -217 l0 -194 -30 -6
c-70 -14 -20 -23 125 -23 97 0 155 4 155 10 0 6 -10 10 -23 10 -13 0 -28 5
-35 12 -16 16 -17 321 -1 350 8 15 8 19 0 14 -7 -5 -11 5 -11 28 l0 36 -120 0
c-73 0 -120 -4 -120 -10z"/>
<path d="M2372 440 c0 -14 2 -19 5 -12 2 6 2 18 0 25 -3 6 -5 1 -5 -13z"/>
</g>
</svg>
